<svg id="visual" viewBox="0 0 900 600" width="900" height="600" xmlns="http://www.w3.org/2000/svg" xmlns:xlink="http://www.w3.org/1999/xlink" version="1.1"><rect x="0" y="0" width="900" height="600" fill="#FFFFFF"></rect><path d="M635 600L658.5 585.7C682 571.3 729 542.7 757.2 514.2C785.3 485.7 794.7 457.3 772.3 428.8C750 400.3 696 371.7 682.2 343C668.3 314.3 694.7 285.7 709.7 257C724.7 228.3 728.3 199.7 742.2 171.2C756 142.7 780 114.3 765.7 85.8C751.3 57.3 698.7 28.7 672.3 14.3L646 0L900 0L900 14.3C900 28.7 900 57.3 900 85.8C900 114.3 900 142.7 900 171.2C900 199.7 900 228.3 900 257C900 285.7 900 314.3 900 343C900 371.7 900 400.3 900 428.8C900 457.3 900 485.7 900 514.2C900 542.7 900 571.3 900 585.7L900 600Z" fill="#e38b08" stroke-linecap="round" stroke-linejoin="miter"></path></svg>