<svg id="visual" viewBox="0 0 900 600" width="900" height="600" xmlns="http://www.w3.org/2000/svg" xmlns:xlink="http://www.w3.org/1999/xlink" version="1.1"><rect x="0" y="0" width="900" height="600" fill="#f3f5f6"></rect><defs><linearGradient id="grad1_0" x1="33.3%" y1="0%" x2="100%" y2="100%"><stop offset="20%" stop-color="#f3f5f6" stop-opacity="1"></stop><stop offset="80%" stop-color="#f3f5f6" stop-opacity="1"></stop></linearGradient></defs><defs><linearGradient id="grad2_0" x1="0%" y1="0%" x2="66.7%" y2="100%"><stop offset="20%" stop-color="#f3f5f6" stop-opacity="1"></stop><stop offset="80%" stop-color="#f3f5f6" stop-opacity="1"></stop></linearGradient></defs><g transform="translate(900, 0)"><path d="M0 243.4C-18 238 -36 232.7 -51.2 224.2C-66.4 215.8 -78.8 204.3 -96.3 200C-113.8 195.7 -136.4 198.5 -151.7 190.3C-167.1 182 -175.4 162.7 -182.2 145.3C-189 127.8 -194.3 112.2 -201.8 97.2C-209.3 82.2 -218.9 67.7 -226.2 51.6C-233.5 35.5 -238.4 17.8 -243.4 0L0 0Z" fill="#fb9a09"></path></g><g transform="translate(0, 600)"><path d="M0 -243.4C18.9 -244 37.9 -244.5 54.2 -237.3C70.4 -230 84 -214.9 98.5 -204.5C113 -194.1 128.4 -188.5 143.4 -179.8C158.4 -171.1 172.9 -159.4 181.4 -144.6C189.9 -129.9 192.4 -112.1 200.9 -96.8C209.4 -81.5 224 -68.7 232 -53C240.1 -37.3 241.7 -18.6 243.4 0L0 0Z" fill="#fb9a09"></path></g></svg>